<?xml version="1.0" encoding="UTF-8"?>
<svg id="Layer_3" data-name="Layer 3" xmlns="http://www.w3.org/2000/svg" xmlns:xlink="http://www.w3.org/1999/xlink" viewBox="0 0 1417.32 1417.32">
  <defs>
    <style>
      .cls-1 {
        fill: #fff;
      }

      .cls-2 {
        fill: url(#linear-gradient);
      }
    </style>
    <linearGradient id="linear-gradient" x1="-54.32" y1="217.67" x2="1087.12" y2="952.2" gradientUnits="userSpaceOnUse">
      <stop offset="0" stop-color="#001437"/>
      <stop offset="1" stop-color="#052d68"/>
    </linearGradient>
  </defs>
  <g id="Layer_1" data-name="Layer 1">
    <g>
      <rect class="cls-2" width="1417.32" height="1417.32"/>
      <g>
        <g>
          <path class="cls-1" d="M342.62,719.93v14.72h-70.47v-66.03h69.43v14.72h-50.47v10.85h41.6v14.05h-41.6v11.7h51.51Z"/>
          <path class="cls-1" d="M424.4,691.73c0,15.38-11.98,23.11-30,23.11h-26.6v19.81h-19.24v-66.03h45.85c18.02,0,30,7.92,30,23.11ZM404.88,692.11c0-6.7-4.9-8.87-12.07-8.87h-25v17.64h25c7.17,0,12.07-2.17,12.07-8.77Z"/>
          <path class="cls-1" d="M446.57,666.45c-8.41,0-15.86,1.34-22.1,3.89,4.05,3.98,6.73,9.02,7.85,14.94,3.78-2.07,8.6-3.17,14.25-3.17,14.53,0,23.49,7.07,23.49,19.53s-8.96,19.53-23.49,19.53c-9.9,0-17.21-3.29-20.87-9.33-3.97,4.44-9.48,7.71-16.28,9.6,7.07,9.95,20.15,15.39,37.15,15.39,26.13,0,43.11-12.83,43.11-35.19s-16.98-35.19-43.11-35.19Z"/>
          <path class="cls-1" d="M567.79,713.99c0,13.58-12.55,22.83-36.51,22.83-16.98,0-31.23-4.62-41.6-12.92l10.09-11.89c7.83,6.6,18.68,10.28,31.88,10.28,11.32,0,16.98-2.08,16.98-6.41s-5.28-5.66-18.87-6.79c-19.62-1.7-37.45-6.04-37.45-20.75s15.28-21.88,36.22-21.88c14.15,0,27.17,3.4,36.22,9.81l-9.72,11.98c-7.36-5.19-16.22-7.26-26.51-7.36-7.74,0-17.07,1.23-17.07,5.94,0,4.43,7.64,5,19.43,5.94,21.6,1.79,36.88,6.04,36.88,21.23Z"/>
        </g>
        <g>
          <path class="cls-1" d="M653.75,689.56c0,13.21-10.09,20.94-25.28,20.94h-36.22v24.15h-7.92v-66.03h44.15c15.19,0,25.28,7.74,25.28,20.94ZM645.63,689.56c0-9.24-6.98-13.58-17.73-13.58h-35.66v27.17h35.66c10.75,0,17.73-4.34,17.73-13.58Z"/>
          <path class="cls-1" d="M715.44,706.16v18.49c0,3.87.66,6.98,2.45,10h-8.21c-1.51-2.55-2.17-5.28-2.17-8.21v-.19c-4.06,5.57-12.17,10.28-23.3,10.28s-26.22-4.53-26.22-18.21,15-18.21,26.22-18.21,19.24,4.62,23.3,10.28v-4.24c0-12.45-7.07-18.11-21.22-18.11-8.21,0-14.43,2.26-20.19,5.94l-3.58-5.66c6.04-4.06,15.75-6.98,25.09-6.98,17.26,0,27.83,8.49,27.83,24.81ZM707.71,717.39c-4.43-8.02-14.15-10.85-22.83-10.85-7.55,0-19.24,2.17-19.24,11.79s11.7,11.79,19.24,11.79c8.68,0,18.39-2.92,22.83-10.85v-1.89Z"/>
          <path class="cls-1" d="M782.7,683.24l-40.09,70.28h-8.39l13.3-22.45-27.36-47.83h8.68l22.83,40,22.54-40h8.49Z"/>
          <path class="cls-1" d="M888.16,705.41v29.24h-7.64v-28.68c0-10.85-5-17.73-16.51-17.73-9.81,0-16.89,5.19-21.04,14.24.09.94.09,1.98.09,2.92v22.92l.09,6.32h-7.73v-28.68c0-10.85-5-17.73-16.51-17.73-9.72,0-16.7,5-20.85,13.96v32.45h-7.73v-51.41h7.73v10.66c4.15-7.55,12.55-12.54,22.83-12.54,11.89,0,18.49,6.04,20.94,14.81,3.96-9.06,13.21-14.81,24.15-14.81,15.75,0,22.17,10.66,22.17,24.05Z"/>
          <path class="cls-1" d="M930.71,730.03c10.19,0,16.32-2.55,22.26-8.11l5.09,5.38c-6.98,6.32-15.56,9.34-27.73,9.34-19.9,0-31.32-10.75-31.32-27.64s11.41-27.73,30.85-27.73c18.3,0,30,9.9,30,27.64,0,.85-.09,1.32-.19,1.7h-52.82c.75,13.02,10.19,19.43,23.87,19.43ZM907.22,704.18h44.81c-2.26-11.41-11.04-16.32-22.07-16.32-11.89,0-20.75,5.47-22.73,16.32Z"/>
          <path class="cls-1" d="M970.33,734.65v-51.41h7.73v10.66c4.81-7.73,13.49-12.54,24.53-12.54,15.94,0,23.58,10.19,23.58,24.24v29.05h-7.73v-28.49c0-11.6-5.75-17.92-17.36-17.92-10,0-18.3,4.62-23.02,14.15v32.26h-7.73Z"/>
          <path class="cls-1" d="M1074.75,731.73c-4.06,2.83-9.15,4.81-14.9,4.81-9.24,0-16.88-4.91-16.88-14.9v-31.6h-10.38v-6.79h10.38v-11.98h7.74v11.98h23.68v6.79h-23.68v30.47c0,6.32,4.81,9.15,10.47,9.15,4.06,0,7.45-1.51,10.85-3.49l2.74,5.57Z"/>
          <path class="cls-1" d="M1133.52,719.93c0,9.25-9.34,16.7-26.88,16.7-11.79,0-22.07-4.06-30-11.04l4.91-4.62c6.7,5.66,14.53,9.24,25.28,9.24s19.05-3.3,19.05-9.53-7.64-8.11-20.75-9.24c-13.58-1.13-26.51-4.06-26.51-14.62s11.32-15.56,26.51-15.56c10.38,0,20.09,4.15,25.75,8.77l-4.91,5.19c-4.81-4.15-11.7-7.45-21.22-7.55-7.83-.09-18.49,1.79-18.49,8.68,0,6.41,9.24,7.64,20.47,8.49,15.47,1.23,26.79,5.09,26.79,15.09Z"/>
        </g>
        <path class="cls-1" d="M1161.38,669.7c0,6.3-4.5,10.43-11.95,10.43s-11.95-4.13-11.95-10.43,4.5-10.43,11.95-10.43,11.95,4.13,11.95,10.43ZM1160.31,669.7c0-6.04-4.27-9.44-10.88-9.44s-10.91,3.4-10.91,9.44,4.3,9.44,10.91,9.44,10.88-3.4,10.88-9.44ZM1153.23,671.42l4.1,4.92h-2.33l-3.79-4.75h-6.69v4.75h-1.91v-13.32h8.83c3.29,0,5.62,1.43,5.62,4.27,0,2.3-1.52,3.68-3.82,4.13ZM1144.51,669.84h6.8c2.36,0,3.79-.59,3.79-2.53s-1.43-2.56-3.79-2.56h-6.8v5.09Z"/>
      </g>
    </g>
  </g>
</svg>